# xmcd CD database file generated by Grip 3.0.6
# 
# Track frame offsets:
#       187
#       17590
#       35922
#       51582
#       69685
#       83715
#       102342
#       117725
#       134912
#       157972
#       171452
#       198530
#       208655
#       228522
#       242860
# 
# Disc length: 3441 seconds
# 
# Revision: 4
# Processed by: cddbd v1.4PL0 Copyright (c) Steve Scherf et al.
# Submitted via: Grip 3.0.6
# 
DISCID=ea0d6f0f
DTITLE=George Winston - Summer
DYEAR=1994
DGENRE=Blues
TTITLE0=Living In The Country
TTITLE1=Loreta And Desirees Bouquet (Part 1)
TTITLE2=Loreta And Desirees Bouquet (Part 2)
TTITLE3=Fragrant Fields
TTITLE4=The Garden
TTITLE5=Spring Creek
TTITLE6=Lullaby
TTITLE7=Black Stallion
TTITLE8=Hummingbird
TTITLE9=Early Morning Range
TTITLE10=Living Without You
TTITLE11=Goodbye Montana (Part 1)
TTITLE12=Corrina, Corrina
TTITLE13=Goodbye Montana (Part 2)
TTITLE14=Where Are You Now
EXTD=
EXTT0=
EXTT1=
EXTT2=
EXTT3=
EXTT4=
EXTT5=
EXTT6=
EXTT7=
EXTT8=
EXTT9=
EXTT10=
EXTT11=
EXTT12=
EXTT13=
EXTT14=
PLAYORDER=
